<svg width="78" height="43" viewBox="0 0 78 43" fill="none" xmlns="http://www.w3.org/2000/svg">
<path d="M4 14H15V18H8C5.79086 18 4 16.2091 4 14Z" fill="#2563EB"/>
<path fill-rule="evenodd" clip-rule="evenodd" d="M20.3545 3C22.4444 3 24.3558 3.38534 26.0889 4.15527C27.8475 4.90194 29.2238 5.92868 30.2178 7.23535C31.2372 8.51861 31.747 9.92983 31.7471 11.4697V19.625C31.7471 20.6049 31.5435 21.5382 31.1357 22.4248C30.7534 23.3114 30.167 24.1047 29.377 24.8047C29.7338 25.2247 30.2058 25.5518 30.792 25.7852C31.4036 26.0184 32.028 26.1121 32.665 26.0654C32.665 27.0452 32.4479 27.7569 32.0146 28.2002C31.5813 28.6433 30.8804 28.8652 29.9121 28.8652C29.0966 28.8652 28.3443 28.6898 27.6562 28.3398C26.9938 27.9899 26.4459 27.5117 26.0127 26.9053C24.3051 27.7219 22.4189 28.1299 20.3545 28.1299C18.2646 28.1299 16.3532 27.7564 14.6201 27.0098C12.887 26.2398 11.5107 25.2012 10.4912 23.8945C9.49731 22.5879 9 21.1649 9 19.625C9 19.625 9 17.8959 9 16H14.085V17.5947C15.0277 17.3615 15.8559 17.2452 16.5693 17.2451C18.6083 17.2451 20.3674 17.525 21.8457 18.085C23.3494 18.645 24.7897 19.6599 26.166 21.1299C26.4972 20.7332 26.6631 20.2197 26.6631 19.5898V11.5752C26.6631 10.2219 26.0892 9.13697 24.9424 8.32031C23.7955 7.48031 22.266 7.05957 20.3545 7.05957C20.2087 7.05957 20.0652 7.06236 19.9238 7.06738L19.9229 3.00586C20.0659 3.00216 20.2098 3 20.3545 3ZM16.2637 20.6055C15.754 20.6055 15.1169 20.6982 14.3525 20.8848C14.7348 21.8414 15.4482 22.6238 16.4932 23.2305C17.5636 23.8137 18.8508 24.1055 20.3545 24.1055C21.374 24.1055 22.3936 23.9419 23.4131 23.6152C22.3937 22.402 21.3487 21.5969 20.2783 21.2002C19.2333 20.8035 17.8949 20.6055 16.2637 20.6055Z" fill="#2563EB"/>
<path d="M4 3H20C22.2091 3 24 4.79086 24 7H8C5.79086 7 4 5.20914 4 3Z" fill="#2563EB"/>
<path d="M35.708 18.332C35.708 18.124 35.784 17.952 35.936 17.816C36.088 17.672 36.28 17.6 36.512 17.6H39.716C40.58 17.6 41.248 17.828 41.72 18.284C42.2 18.74 42.44 19.38 42.44 20.204C42.44 20.676 42.344 21.076 42.152 21.404C41.96 21.724 41.668 21.98 41.276 22.172V22.208C41.98 22.52 42.332 23.112 42.332 23.984V24.92C42.332 25.304 42.196 25.6 41.924 25.808C41.652 26.008 41.252 26.108 40.724 26.108V24.056C40.724 23.632 40.64 23.32 40.472 23.12C40.304 22.92 40.048 22.82 39.704 22.82H37.292V24.92C37.292 25.312 37.156 25.608 36.884 25.808C36.62 26.008 36.228 26.108 35.708 26.108V18.332ZM39.632 21.452C40.016 21.452 40.312 21.344 40.52 21.128C40.728 20.904 40.832 20.592 40.832 20.192C40.832 19.376 40.432 18.968 39.632 18.968H37.292V21.452H39.632ZM46.0467 26.108C45.5507 26.108 45.0987 26.012 44.6907 25.82C44.2827 25.62 43.9587 25.352 43.7187 25.016C43.4787 24.672 43.3587 24.288 43.3587 23.864V22.268C43.3587 21.82 43.4827 21.416 43.7307 21.056C43.9787 20.696 44.3067 20.412 44.7147 20.204C45.1307 19.996 45.5787 19.892 46.0587 19.892C46.5307 19.892 46.9627 19.992 47.3547 20.192C47.7547 20.384 48.0707 20.656 48.3027 21.008C48.5347 21.352 48.6507 21.748 48.6507 22.196V22.868C48.6507 23.044 48.5827 23.192 48.4467 23.312C48.3187 23.432 48.1547 23.492 47.9547 23.492H44.8107V23.756C44.8107 24.1 44.9147 24.38 45.1227 24.596C45.3307 24.812 45.6427 24.92 46.0587 24.92C46.4587 24.92 46.7547 24.832 46.9467 24.656C47.1467 24.48 47.2467 24.252 47.2467 23.972C47.3907 23.956 47.4907 23.948 47.5467 23.948C47.8427 23.948 48.0747 24.016 48.2427 24.152C48.4107 24.28 48.4947 24.464 48.4947 24.704C48.4947 24.936 48.3867 25.16 48.1707 25.376C47.9547 25.592 47.6587 25.768 47.2827 25.904C46.9067 26.04 46.4947 26.108 46.0467 26.108ZM47.2947 22.424V22.196C47.2947 21.86 47.1787 21.588 46.9467 21.38C46.7147 21.172 46.4147 21.068 46.0467 21.068C45.6787 21.068 45.3787 21.172 45.1467 21.38C44.9227 21.58 44.8107 21.852 44.8107 22.196V22.424H47.2947ZM49.8057 21.044C49.8057 20.676 49.9217 20.392 50.1537 20.192C50.3937 19.992 50.7537 19.892 51.2337 19.892V20.612C51.1377 20.724 51.0417 20.852 50.9457 20.996L51.0177 21.044C51.2577 20.684 51.5657 20.404 51.9417 20.204C52.3177 19.996 52.7337 19.892 53.1897 19.892C53.5977 19.892 53.9577 19.984 54.2697 20.168C54.5817 20.352 54.8217 20.604 54.9897 20.924C55.1657 21.244 55.2537 21.604 55.2537 22.004V25.196C55.2537 25.516 55.1297 25.748 54.8817 25.892C54.6337 26.036 54.2577 26.108 53.7537 26.108V22.22C53.7537 21.916 53.6617 21.668 53.4777 21.476C53.3017 21.284 53.0417 21.188 52.6977 21.188C52.2897 21.188 51.9537 21.316 51.6897 21.572C51.4257 21.82 51.2937 22.132 51.2937 22.508V25.196C51.2937 25.516 51.1737 25.748 50.9337 25.892C50.6937 26.036 50.3177 26.108 49.8057 26.108V21.044ZM59.2242 26.108C58.5762 26.108 58.0962 25.92 57.7842 25.544C57.4722 25.168 57.3162 24.684 57.3162 24.092V21.116H56.0802C56.0802 20.74 56.1522 20.46 56.2962 20.276C56.4402 20.092 56.6322 20 56.8722 20H57.3402V19.004C57.3402 18.676 57.4602 18.444 57.7002 18.308C57.9402 18.164 58.3042 18.092 58.7922 18.092V20H60.3882C60.3882 20.4 60.3122 20.688 60.1602 20.864C60.0082 21.032 59.7642 21.116 59.4282 21.116H58.8162V24.032C58.8162 24.312 58.8682 24.512 58.9722 24.632C59.0842 24.752 59.2722 24.812 59.5362 24.812C59.8162 24.812 60.0962 24.736 60.3762 24.584C60.4562 24.656 60.5202 24.748 60.5682 24.86C60.6162 24.964 60.6402 25.072 60.6402 25.184C60.6402 25.424 60.5162 25.64 60.2682 25.832C60.0202 26.016 59.6722 26.108 59.2242 26.108ZM63.3992 26.108C62.9912 26.108 62.6152 26.028 62.2712 25.868C61.9352 25.708 61.6632 25.48 61.4552 25.184C61.2552 24.88 61.1552 24.52 61.1552 24.104C61.1552 23.688 61.2632 23.328 61.4792 23.024C61.6952 22.712 61.9872 22.476 62.3552 22.316C62.7312 22.148 63.1432 22.064 63.5912 22.064C63.9592 22.064 64.2872 22.124 64.5752 22.244C64.8712 22.356 65.1432 22.528 65.3912 22.76L65.4512 22.7C65.3792 22.628 65.2552 22.52 65.0792 22.376V22.136C65.0792 21.808 64.9632 21.548 64.7312 21.356C64.4992 21.164 64.1752 21.068 63.7592 21.068C63.0152 21.068 62.4672 21.34 62.1152 21.884C61.9392 21.828 61.7912 21.74 61.6712 21.62C61.5512 21.492 61.4912 21.356 61.4912 21.212C61.4912 20.972 61.5992 20.752 61.8152 20.552C62.0312 20.352 62.3232 20.192 62.6912 20.072C63.0592 19.952 63.4592 19.892 63.8912 19.892C64.7392 19.892 65.3952 20.092 65.8592 20.492C66.3232 20.884 66.5552 21.42 66.5552 22.1V25.1C66.5552 25.452 66.4432 25.708 66.2192 25.868C65.9952 26.028 65.6432 26.108 65.1632 26.108V25.616C65.2992 25.48 65.3912 25.38 65.4392 25.316L65.3912 25.256C65.1272 25.536 64.8432 25.748 64.5392 25.892C64.2432 26.036 63.8632 26.108 63.3992 26.108ZM63.7832 25.016C64.1992 25.016 64.5232 24.936 64.7552 24.776C64.9872 24.616 65.1032 24.388 65.1032 24.092C65.1032 23.804 64.9832 23.576 64.7432 23.408C64.5112 23.24 64.1952 23.156 63.7952 23.156C63.4272 23.156 63.1352 23.24 62.9192 23.408C62.7112 23.568 62.6072 23.796 62.6072 24.092C62.6072 24.396 62.7112 24.628 62.9192 24.788C63.1272 24.94 63.4152 25.016 63.7832 25.016ZM69.8674 26.108C69.2034 26.108 68.6994 25.92 68.3554 25.544C68.0194 25.16 67.8514 24.676 67.8514 24.092V18.404C67.8514 18.076 67.9714 17.844 68.2114 17.708C68.4594 17.564 68.8394 17.492 69.3514 17.492V24.032C69.3514 24.304 69.4114 24.504 69.5314 24.632C69.6514 24.752 69.8434 24.812 70.1074 24.812C70.4034 24.812 70.6994 24.736 70.9954 24.584C71.0754 24.656 71.1354 24.748 71.1754 24.86C71.2234 24.964 71.2474 25.072 71.2474 25.184C71.2474 25.424 71.1274 25.64 70.8874 25.832C70.6474 26.016 70.3074 26.108 69.8674 26.108ZM74.5424 26.108C73.7744 26.108 73.1544 25.972 72.6824 25.7C72.2184 25.42 71.9824 25.048 71.9744 24.584C71.9744 24.384 72.0544 24.216 72.2144 24.08C72.3824 23.944 72.6464 23.872 73.0064 23.864C73.0784 24.216 73.2464 24.488 73.5104 24.68C73.7744 24.864 74.0944 24.956 74.4704 24.956C74.8784 24.956 75.1984 24.904 75.4304 24.8C75.6624 24.696 75.7784 24.54 75.7784 24.332C75.7784 24.14 75.6824 23.98 75.4904 23.852C75.3064 23.724 74.9384 23.596 74.3864 23.468C73.7864 23.324 73.3184 23.18 72.9824 23.036C72.6544 22.892 72.4104 22.708 72.2504 22.484C72.0904 22.26 72.0104 21.964 72.0104 21.596C72.0104 21.084 72.2264 20.672 72.6584 20.36C73.0904 20.048 73.6824 19.892 74.4344 19.892C75.1624 19.892 75.7664 20.024 76.2464 20.288C76.7264 20.544 76.9664 20.888 76.9664 21.32C76.9664 21.536 76.8864 21.696 76.7264 21.8C76.5664 21.904 76.3024 21.96 75.9344 21.968C75.8544 21.648 75.7024 21.408 75.4784 21.248C75.2544 21.088 74.9384 21.008 74.5304 21.008C74.2264 21.008 73.9624 21.06 73.7384 21.164C73.5224 21.268 73.4144 21.404 73.4144 21.572C73.4144 21.748 73.5064 21.884 73.6904 21.98C73.8744 22.076 74.1944 22.172 74.6504 22.268C75.5464 22.46 76.1944 22.716 76.5944 23.036C77.0024 23.356 77.2064 23.792 77.2064 24.344C77.2064 24.88 76.9664 25.308 76.4864 25.628C76.0144 25.948 75.3664 26.108 74.5424 26.108Z" fill="white"/>
</svg>
