<svg width="79" height="43" viewBox="0 0 79 43" fill="none" xmlns="http://www.w3.org/2000/svg">
<path d="M4 14H15V18H8C5.79086 18 4 16.2091 4 14Z" fill="#2563EB"/>
<path fill-rule="evenodd" clip-rule="evenodd" d="M20.3545 3C22.4444 3 24.3558 3.38534 26.0889 4.15527C27.8475 4.90194 29.2238 5.92868 30.2178 7.23535C31.2372 8.51861 31.747 9.92983 31.7471 11.4697V19.625C31.7471 20.6049 31.5435 21.5382 31.1357 22.4248C30.7534 23.3114 30.167 24.1047 29.377 24.8047C29.7338 25.2247 30.2058 25.5518 30.792 25.7852C31.4036 26.0184 32.028 26.1121 32.665 26.0654C32.665 27.0452 32.4479 27.7569 32.0146 28.2002C31.5813 28.6433 30.8804 28.8652 29.9121 28.8652C29.0966 28.8652 28.3443 28.6898 27.6562 28.3398C26.9938 27.9899 26.4459 27.5117 26.0127 26.9053C24.3051 27.7219 22.4189 28.1299 20.3545 28.1299C18.2646 28.1299 16.3532 27.7564 14.6201 27.0098C12.887 26.2398 11.5107 25.2012 10.4912 23.8945C9.49731 22.5879 9 21.1649 9 19.625C9 19.625 9 17.8959 9 16H14.085V17.5947C15.0277 17.3615 15.8559 17.2452 16.5693 17.2451C18.6083 17.2451 20.3674 17.525 21.8457 18.085C23.3494 18.645 24.7897 19.6599 26.166 21.1299C26.4972 20.7332 26.6631 20.2197 26.6631 19.5898V11.5752C26.6631 10.2219 26.0892 9.13696 24.9424 8.32031C23.7955 7.48031 22.266 7.05957 20.3545 7.05957C20.2087 7.05957 20.0652 7.06236 19.9238 7.06738L19.9229 3.00586C20.0659 3.00216 20.2098 3 20.3545 3ZM16.2637 20.6055C15.754 20.6055 15.1169 20.6982 14.3525 20.8848C14.7348 21.8414 15.4482 22.6238 16.4932 23.2305C17.5636 23.8137 18.8508 24.1055 20.3545 24.1055C21.374 24.1055 22.3936 23.9419 23.4131 23.6152C22.3937 22.402 21.3487 21.5969 20.2783 21.2002C19.2333 20.8035 17.8949 20.6055 16.2637 20.6055Z" fill="#2563EB"/>
<path d="M4 3H20C22.2091 3 24 4.79086 24 7H8C5.79086 7 4 5.20914 4 3Z" fill="#2563EB"/>
<path d="M36.708 15.332C36.708 15.124 36.784 14.952 36.936 14.816C37.088 14.672 37.28 14.6 37.512 14.6H40.716C41.58 14.6 42.248 14.828 42.72 15.284C43.2 15.74 43.44 16.38 43.44 17.204C43.44 17.676 43.344 18.076 43.152 18.404C42.96 18.724 42.668 18.98 42.276 19.172V19.208C42.98 19.52 43.332 20.112 43.332 20.984V21.92C43.332 22.304 43.196 22.6 42.924 22.808C42.652 23.008 42.252 23.108 41.724 23.108V21.056C41.724 20.632 41.64 20.32 41.472 20.12C41.304 19.92 41.048 19.82 40.704 19.82H38.292V21.92C38.292 22.312 38.156 22.608 37.884 22.808C37.62 23.008 37.228 23.108 36.708 23.108V15.332ZM40.632 18.452C41.016 18.452 41.312 18.344 41.52 18.128C41.728 17.904 41.832 17.592 41.832 17.192C41.832 16.376 41.432 15.968 40.632 15.968H38.292V18.452H40.632ZM47.0467 23.108C46.5507 23.108 46.0987 23.012 45.6907 22.82C45.2827 22.62 44.9587 22.352 44.7187 22.016C44.4787 21.672 44.3587 21.288 44.3587 20.864V19.268C44.3587 18.82 44.4827 18.416 44.7307 18.056C44.9787 17.696 45.3067 17.412 45.7147 17.204C46.1307 16.996 46.5787 16.892 47.0587 16.892C47.5307 16.892 47.9627 16.992 48.3547 17.192C48.7547 17.384 49.0707 17.656 49.3027 18.008C49.5347 18.352 49.6507 18.748 49.6507 19.196V19.868C49.6507 20.044 49.5827 20.192 49.4467 20.312C49.3187 20.432 49.1547 20.492 48.9547 20.492H45.8107V20.756C45.8107 21.1 45.9147 21.38 46.1227 21.596C46.3307 21.812 46.6427 21.92 47.0587 21.92C47.4587 21.92 47.7547 21.832 47.9467 21.656C48.1467 21.48 48.2467 21.252 48.2467 20.972C48.3907 20.956 48.4907 20.948 48.5467 20.948C48.8427 20.948 49.0747 21.016 49.2427 21.152C49.4107 21.28 49.4947 21.464 49.4947 21.704C49.4947 21.936 49.3867 22.16 49.1707 22.376C48.9547 22.592 48.6587 22.768 48.2827 22.904C47.9067 23.04 47.4947 23.108 47.0467 23.108ZM48.2947 19.424V19.196C48.2947 18.86 48.1787 18.588 47.9467 18.38C47.7147 18.172 47.4147 18.068 47.0467 18.068C46.6787 18.068 46.3787 18.172 46.1467 18.38C45.9227 18.58 45.8107 18.852 45.8107 19.196V19.424H48.2947ZM50.8057 18.044C50.8057 17.676 50.9217 17.392 51.1537 17.192C51.3937 16.992 51.7537 16.892 52.2337 16.892V17.612C52.1377 17.724 52.0417 17.852 51.9457 17.996L52.0177 18.044C52.2577 17.684 52.5657 17.404 52.9417 17.204C53.3177 16.996 53.7337 16.892 54.1897 16.892C54.5977 16.892 54.9577 16.984 55.2697 17.168C55.5817 17.352 55.8217 17.604 55.9897 17.924C56.1657 18.244 56.2537 18.604 56.2537 19.004V22.196C56.2537 22.516 56.1297 22.748 55.8817 22.892C55.6337 23.036 55.2577 23.108 54.7537 23.108V19.22C54.7537 18.916 54.6617 18.668 54.4777 18.476C54.3017 18.284 54.0417 18.188 53.6977 18.188C53.2897 18.188 52.9537 18.316 52.6897 18.572C52.4257 18.82 52.2937 19.132 52.2937 19.508V22.196C52.2937 22.516 52.1737 22.748 51.9337 22.892C51.6937 23.036 51.3177 23.108 50.8057 23.108V18.044ZM60.2242 23.108C59.5762 23.108 59.0962 22.92 58.7842 22.544C58.4722 22.168 58.3162 21.684 58.3162 21.092V18.116H57.0802C57.0802 17.74 57.1522 17.46 57.2962 17.276C57.4402 17.092 57.6322 17 57.8722 17H58.3402V16.004C58.3402 15.676 58.4602 15.444 58.7002 15.308C58.9402 15.164 59.3042 15.092 59.7922 15.092V17H61.3882C61.3882 17.4 61.3122 17.688 61.1602 17.864C61.0082 18.032 60.7642 18.116 60.4282 18.116H59.8162V21.032C59.8162 21.312 59.8682 21.512 59.9722 21.632C60.0842 21.752 60.2722 21.812 60.5362 21.812C60.8162 21.812 61.0962 21.736 61.3762 21.584C61.4562 21.656 61.5202 21.748 61.5682 21.86C61.6162 21.964 61.6402 22.072 61.6402 22.184C61.6402 22.424 61.5162 22.64 61.2682 22.832C61.0202 23.016 60.6722 23.108 60.2242 23.108ZM64.3992 23.108C63.9912 23.108 63.6152 23.028 63.2712 22.868C62.9352 22.708 62.6632 22.48 62.4552 22.184C62.2552 21.88 62.1552 21.52 62.1552 21.104C62.1552 20.688 62.2632 20.328 62.4792 20.024C62.6952 19.712 62.9872 19.476 63.3552 19.316C63.7312 19.148 64.1432 19.064 64.5912 19.064C64.9592 19.064 65.2872 19.124 65.5752 19.244C65.8712 19.356 66.1432 19.528 66.3912 19.76L66.4512 19.7C66.3792 19.628 66.2552 19.52 66.0792 19.376V19.136C66.0792 18.808 65.9632 18.548 65.7312 18.356C65.4992 18.164 65.1752 18.068 64.7592 18.068C64.0152 18.068 63.4672 18.34 63.1152 18.884C62.9392 18.828 62.7912 18.74 62.6712 18.62C62.5512 18.492 62.4912 18.356 62.4912 18.212C62.4912 17.972 62.5992 17.752 62.8152 17.552C63.0312 17.352 63.3232 17.192 63.6912 17.072C64.0592 16.952 64.4592 16.892 64.8912 16.892C65.7392 16.892 66.3952 17.092 66.8592 17.492C67.3232 17.884 67.5552 18.42 67.5552 19.1V22.1C67.5552 22.452 67.4432 22.708 67.2192 22.868C66.9952 23.028 66.6432 23.108 66.1632 23.108V22.616C66.2992 22.48 66.3912 22.38 66.4392 22.316L66.3912 22.256C66.1272 22.536 65.8432 22.748 65.5392 22.892C65.2432 23.036 64.8632 23.108 64.3992 23.108ZM64.7832 22.016C65.1992 22.016 65.5232 21.936 65.7552 21.776C65.9872 21.616 66.1032 21.388 66.1032 21.092C66.1032 20.804 65.9832 20.576 65.7432 20.408C65.5112 20.24 65.1952 20.156 64.7952 20.156C64.4272 20.156 64.1352 20.24 63.9192 20.408C63.7112 20.568 63.6072 20.796 63.6072 21.092C63.6072 21.396 63.7112 21.628 63.9192 21.788C64.1272 21.94 64.4152 22.016 64.7832 22.016ZM70.8674 23.108C70.2034 23.108 69.6994 22.92 69.3554 22.544C69.0194 22.16 68.8514 21.676 68.8514 21.092V15.404C68.8514 15.076 68.9714 14.844 69.2114 14.708C69.4594 14.564 69.8394 14.492 70.3514 14.492V21.032C70.3514 21.304 70.4114 21.504 70.5314 21.632C70.6514 21.752 70.8434 21.812 71.1074 21.812C71.4034 21.812 71.6994 21.736 71.9954 21.584C72.0754 21.656 72.1354 21.748 72.1754 21.86C72.2234 21.964 72.2474 22.072 72.2474 22.184C72.2474 22.424 72.1274 22.64 71.8874 22.832C71.6474 23.016 71.3074 23.108 70.8674 23.108ZM75.5424 23.108C74.7744 23.108 74.1544 22.972 73.6824 22.7C73.2184 22.42 72.9824 22.048 72.9744 21.584C72.9744 21.384 73.0544 21.216 73.2144 21.08C73.3824 20.944 73.6464 20.872 74.0064 20.864C74.0784 21.216 74.2464 21.488 74.5104 21.68C74.7744 21.864 75.0944 21.956 75.4704 21.956C75.8784 21.956 76.1984 21.904 76.4304 21.8C76.6624 21.696 76.7784 21.54 76.7784 21.332C76.7784 21.14 76.6824 20.98 76.4904 20.852C76.3064 20.724 75.9384 20.596 75.3864 20.468C74.7864 20.324 74.3184 20.18 73.9824 20.036C73.6544 19.892 73.4104 19.708 73.2504 19.484C73.0904 19.26 73.0104 18.964 73.0104 18.596C73.0104 18.084 73.2264 17.672 73.6584 17.36C74.0904 17.048 74.6824 16.892 75.4344 16.892C76.1624 16.892 76.7664 17.024 77.2464 17.288C77.7264 17.544 77.9664 17.888 77.9664 18.32C77.9664 18.536 77.8864 18.696 77.7264 18.8C77.5664 18.904 77.3024 18.96 76.9344 18.968C76.8544 18.648 76.7024 18.408 76.4784 18.248C76.2544 18.088 75.9384 18.008 75.5304 18.008C75.2264 18.008 74.9624 18.06 74.7384 18.164C74.5224 18.268 74.4144 18.404 74.4144 18.572C74.4144 18.748 74.5064 18.884 74.6904 18.98C74.8744 19.076 75.1944 19.172 75.6504 19.268C76.5464 19.46 77.1944 19.716 77.5944 20.036C78.0024 20.356 78.2064 20.792 78.2064 21.344C78.2064 21.88 77.9664 22.308 77.4864 22.628C77.0144 22.948 76.3664 23.108 75.5424 23.108Z" fill="black"/>
</svg>
