<svg width="29" height="26" viewBox="0 0 29 26" fill="none" xmlns="http://www.w3.org/2000/svg">
<path d="M0 11H11V15H4C1.79086 15 0 13.2091 0 11Z" fill="#2563EB"/>
<path fill-rule="evenodd" clip-rule="evenodd" d="M16.3545 0C18.4444 0 20.3558 0.385341 22.0889 1.15527C23.8475 1.90194 25.2238 2.92868 26.2178 4.23535C27.2372 5.51861 27.747 6.92983 27.7471 8.46973V16.625C27.7471 17.6049 27.5435 18.5382 27.1357 19.4248C26.7534 20.3114 26.167 21.1047 25.377 21.8047C25.7338 22.2247 26.2058 22.5518 26.792 22.7852C27.4036 23.0184 28.028 23.1121 28.665 23.0654C28.665 24.0452 28.4479 24.7569 28.0146 25.2002C27.5813 25.6433 26.8804 25.8652 25.9121 25.8652C25.0966 25.8652 24.3443 25.6898 23.6562 25.3398C22.9938 24.9899 22.4459 24.5117 22.0127 23.9053C20.3051 24.7219 18.4189 25.1299 16.3545 25.1299C14.2646 25.1299 12.3532 24.7564 10.6201 24.0098C8.88698 23.2398 7.5107 22.2012 6.49121 20.8945C5.49731 19.5879 5 18.1649 5 16.625C5 16.625 5 14.8959 5 13H10.085V14.5947C11.0277 14.3615 11.8559 14.2452 12.5693 14.2451C14.6083 14.2451 16.3674 14.525 17.8457 15.085C19.3494 15.645 20.7897 16.6599 22.166 18.1299C22.4972 17.7332 22.6631 17.2197 22.6631 16.5898V8.5752C22.6631 7.22193 22.0892 6.13697 20.9424 5.32031C19.7955 4.48031 18.266 4.05957 16.3545 4.05957C16.2087 4.05957 16.0652 4.06236 15.9238 4.06738L15.9229 0.00585938C16.0659 0.00216272 16.2098 1.00863e-06 16.3545 0ZM12.2637 17.6055C11.754 17.6055 11.1169 17.6982 10.3525 17.8848C10.7348 18.8414 11.4482 19.6238 12.4932 20.2305C13.5636 20.8137 14.8508 21.1055 16.3545 21.1055C17.374 21.1055 18.3936 20.9419 19.4131 20.6152C18.3937 19.402 17.3487 18.5969 16.2783 18.2002C15.2333 17.8035 13.8949 17.6055 12.2637 17.6055Z" fill="#2563EB"/>
<path d="M0 0H16C18.2091 0 20 1.79086 20 4H4C1.79086 4 0 2.20914 0 0Z" fill="#2563EB"/>
</svg>
